<?xml version="1.0" encoding="UTF-8" standalone="no"?>
<!-- Generator: Adobe Illustrator 21.1.0, SVG Export Plug-In . SVG Version: 6.00 Build 0)  -->

<svg
   xmlns:dc="http://purl.org/dc/elements/1.1/"
   xmlns:cc="http://creativecommons.org/ns#"
   xmlns:rdf="http://www.w3.org/1999/02/22-rdf-syntax-ns#"
   xmlns:svg="http://www.w3.org/2000/svg"
   xmlns="http://www.w3.org/2000/svg"
   xmlns:sodipodi="http://sodipodi.sourceforge.net/DTD/sodipodi-0.dtd"
   xmlns:inkscape="http://www.inkscape.org/namespaces/inkscape"
   version="1.1"
   id="Layer_1"
   x="0px"
   y="0px"
   viewBox="0 0 700 200"
   xml:space="preserve"
   inkscape:version="0.91 r13725"
   sodipodi:docname="logo-cris-scheduling-white.svg"
   width="700"
   height="200"><metadata
     id="metadata136"><rdf:RDF><cc:Work
         rdf:about=""><dc:format>image/svg+xml</dc:format><dc:type
           rdf:resource="http://purl.org/dc/dcmitype/StillImage" /><dc:title></dc:title></cc:Work></rdf:RDF></metadata><defs
     id="defs134" /><sodipodi:namedview
     pagecolor="#ffffff"
     bordercolor="#666666"
     borderopacity="1"
     objecttolerance="10"
     gridtolerance="10"
     guidetolerance="10"
     inkscape:pageopacity="0"
     inkscape:pageshadow="2"
     inkscape:window-width="1920"
     inkscape:window-height="993"
     id="namedview132"
     showgrid="false"
     inkscape:zoom="0.362"
     inkscape:cx="-455.8011"
     inkscape:cy="100"
     inkscape:window-x="0"
     inkscape:window-y="24"
     inkscape:window-maximized="1"
     inkscape:current-layer="Layer_1" /><style
     type="text/css"
     id="style3">
	.st0{fill:#FFFFFF;}
	.st1{fill:url(#SVGID_1_);}
	.st2{fill:url(#SVGID_2_);}
	.st3{fill:url(#SVGID_3_);}
	.st4{fill:url(#SVGID_4_);}
	.st5{fill:url(#SVGID_5_);}
	.st6{fill:url(#SVGID_6_);}
	.st7{fill:url(#SVGID_7_);}
	.st8{fill:url(#SVGID_8_);}
	.st9{fill:url(#SVGID_9_);}
	.st10{fill:url(#SVGID_10_);}
	.st11{fill:url(#SVGID_11_);}
	.st12{fill:url(#SVGID_12_);}
	.st13{fill:url(#SVGID_13_);}
	.st14{fill:url(#SVGID_14_);}
	.st15{fill:url(#SVGID_15_);}
	.st16{fill:url(#SVGID_16_);}
	.st17{fill:url(#SVGID_17_);}
	.st18{fill:url(#SVGID_18_);}
	.st19{fill:url(#SVGID_19_);}
	.st20{fill:url(#SVGID_20_);}
	.st21{fill:url(#SVGID_21_);}
	.st22{fill:url(#SVGID_22_);}
	.st23{fill:url(#SVGID_23_);}
	.st24{fill:url(#SVGID_24_);}
	.st25{fill:url(#SVGID_25_);}
	.st26{fill:url(#SVGID_26_);}
	.st27{fill:url(#SVGID_27_);}
	.st28{fill:url(#SVGID_28_);}
	.st29{fill:url(#SVGID_29_);}
	.st30{fill:url(#SVGID_30_);}
	.st31{fill:url(#SVGID_31_);}
	.st32{fill:url(#SVGID_32_);}
	.st33{fill:url(#SVGID_33_);}
	.st34{fill:url(#SVGID_34_);}
	.st35{fill:url(#SVGID_35_);}
	.st36{fill:url(#SVGID_36_);}
</style><path
     class="st0"
     d="m 478.98361,37.378597 c -0.71209,-0.445058 -1.60221,-0.712094 -2.40331,-0.712094 -0.89012,0 -1.69123,0.267036 -2.49233,0.712094 -0.7121,0.445059 -1.33518,1.068141 -1.78024,1.869246 -0.44506,0.801106 -0.62308,1.691223 -0.62308,2.581341 0,0.890117 0.17802,1.780234 0.62308,2.58134 0.44506,0.801105 0.97913,1.424187 1.78024,1.869246 0.71209,0.445059 1.60221,0.712094 2.49233,0.712094 0.89011,0 1.69122,-0.267035 2.49232,-0.712094 0.7121,-0.445059 1.33518,-1.068141 1.78024,-1.869246 0.44506,-0.801106 0.62308,-1.691223 0.62308,-2.58134 0,-0.890118 -0.17802,-1.780235 -0.62308,-2.581341 -0.53407,-0.801105 -1.15715,-1.424187 -1.86925,-1.869246 z m 1.60221,4.450587 c 0,0.801105 -0.17802,1.513199 -0.53407,2.136281 -0.35604,0.623082 -0.8011,1.157153 -1.42418,1.602211 -0.62309,0.356047 -1.33518,0.623082 -2.04727,0.623082 -0.7121,0 -1.42419,-0.178023 -2.04727,-0.53407 -0.62309,-0.356047 -1.15716,-0.890117 -1.42419,-1.602211 -0.35605,-0.623082 -0.53407,-1.335176 -0.53407,-2.136282 0,-0.801105 0.17802,-1.513199 0.53407,-2.136281 0.35605,-0.623082 0.89012,-1.157153 1.5132,-1.5132 0.62308,-0.356046 1.33517,-0.53407 2.04727,-0.53407 0.71209,0 1.42419,0.178024 2.04727,0.623082 0.62308,0.356047 1.06814,0.890117 1.42419,1.602211 0.26703,0.445059 0.44505,1.157153 0.44505,1.869247 z"
     id="path5"
     inkscape:connector-curvature="0"
     style="fill:#ffffff" /><path
     class="st0"
     d="m 478.62757,43.342383 c 0,-0.356047 -0.089,-0.712094 -0.17803,-0.979129 -0.089,-0.267035 -0.35604,-0.445059 -0.62308,-0.623082 0.53407,-0.267035 0.80111,-0.712094 0.80111,-1.246164 0,-0.534071 -0.17803,-0.979129 -0.62309,-1.335176 -0.35604,-0.267035 -0.97913,-0.445059 -1.60221,-0.445059 l -1.95826,0 0,5.785763 1.06815,0 0,-2.314305 1.06814,0 c 0.35604,0 0.62308,0.08901 0.71209,0.267035 0.17802,0.178023 0.26704,0.445058 0.26704,0.712094 0,0.712093 0,1.157152 0.089,1.335176 l 1.06814,0 0,-0.08901 c -0.089,-0.08901 -0.089,-0.267035 -0.089,-0.356047 0,0 0,-0.267035 0,-0.712094 z m -1.33518,-2.136281 c -0.17802,0.178023 -0.44506,0.178023 -0.80111,0.178023 l -0.97912,0 0,-1.691223 0.97912,0 c 0.44506,0 0.7121,0.08901 0.89012,0.178024 0.17803,0.178023 0.26704,0.356047 0.26704,0.712093 0,0.356047 -0.089,0.534071 -0.35605,0.623083 z"
     id="path7"
     inkscape:connector-curvature="0"
     style="fill:#ffffff" /><g
     id="g9"
     transform="matrix(0.89011729,0,0,0.89011729,-117.03893,11.832231)"><path
       class="st0"
       d="m 537.1,100.1 c 6.2,0 11.3,-1.8 15.5,-5.3 4.2,-3.5 6.4,-8.2 6.7,-14 l -3,0 c -0.3,5.1 -2.3,9.1 -5.8,12 -3.5,2.9 -8,4.3 -13.4,4.3 -6.7,0 -11.9,-2.4 -15.7,-7.2 -3.8,-4.8 -5.7,-11.4 -5.7,-19.7 l 0,-1.9 c 0,-8.6 1.9,-15.3 5.7,-20.1 3.8,-4.8 9,-7.2 15.7,-7.2 5.6,0 10.1,1.6 13.6,4.9 3.5,3.3 5.4,7.6 5.7,13 l 3,0 c -0.3,-6.3 -2.5,-11.4 -6.6,-15.2 -4.1,-3.8 -9.4,-5.7 -15.7,-5.7 -7.4,0 -13.3,2.7 -17.7,8.1 -4.4,5.4 -6.6,12.7 -6.6,21.8 l 0,2 c 0,9.3 2.2,16.7 6.6,22.1 4.2,5.4 10.2,8.1 17.7,8.1 z"
       id="path11"
       inkscape:connector-curvature="0"
       style="fill:#ffffff" /><path
       class="st0"
       d="m 537.1,100.4 c -7.6,0 -13.6,-2.8 -18.1,-8.3 -4.4,-5.5 -6.7,-13 -6.7,-22.3 l 0,-2 c 0,-9.1 2.2,-16.5 6.7,-21.9 4.5,-5.5 10.5,-8.2 18,-8.2 6.4,0 11.8,1.9 15.9,5.8 4.2,3.8 6.4,9 6.7,15.4 l 0,0.3 -3.6,0 0,-0.3 c -0.3,-5.3 -2.1,-9.6 -5.6,-12.8 -3.5,-3.2 -8,-4.8 -13.4,-4.8 -6.5,0 -11.7,2.4 -15.5,7.1 -3.7,4.7 -5.6,11.4 -5.6,19.9 l 0,1.9 c 0,8.3 1.9,14.8 5.7,19.5 3.7,4.7 9,7.1 15.5,7.1 5.3,0 9.8,-1.4 13.2,-4.2 3.4,-2.8 5.4,-6.8 5.7,-11.7 l 0,-0.3 3.6,0 0,0.3 c -0.3,5.9 -2.6,10.6 -6.8,14.2 -4.2,3.5 -9.5,5.3 -15.7,5.3 z M 537,38.3 c -7.3,0 -13.2,2.7 -17.5,8 -4.3,5.3 -6.5,12.6 -6.5,21.6 l 0,2 c 0,9.2 2.2,16.5 6.5,21.9 4.3,5.3 10.3,8 17.6,8 6.1,0 11.2,-1.8 15.3,-5.2 4,-3.4 6.2,-7.9 6.6,-13.4 l -2.4,0 c -0.4,5 -2.4,9 -5.9,11.9 -3.6,2.9 -8.1,4.4 -13.6,4.4 -6.7,0 -12.1,-2.5 -16,-7.3 -3.8,-4.8 -5.8,-11.5 -5.8,-19.9 l 0,-1.9 c 0,-8.6 1.9,-15.4 5.7,-20.3 3.8,-4.9 9.2,-7.3 15.9,-7.3 5.6,0 10.3,1.7 13.9,5 3.5,3.2 5.4,7.6 5.8,12.9 l 2.4,0 c -0.3,-6.1 -2.5,-11 -6.5,-14.6 -4.1,-3.9 -9.3,-5.8 -15.5,-5.8 z"
       id="path13"
       inkscape:connector-curvature="0"
       style="fill:#ffffff" /></g><g
     id="g15"
     transform="matrix(0.89011729,0,0,0.89011729,-117.03893,11.832231)"><path
       class="st0"
       d="m 570.9,39.1 0,59.9 3,0 0,-39.2 c 1.1,-5.9 3.3,-10.6 6.8,-13.9 3.4,-3.3 7.7,-4.9 12.8,-4.9 l 3.9,0.3 0.3,-2.7 c -1.1,-0.4 -2.5,-0.6 -4.2,-0.6 -4.9,0 -9,1.2 -12.2,3.7 -3.2,2.4 -5.7,5.7 -7.3,9.9 l 0,-12.5 -3.1,0 z"
       id="path17"
       inkscape:connector-curvature="0"
       style="fill:#ffffff" /><path
       class="st0"
       d="m 574.2,99.3 -3.6,0 0,-60.5 3.6,0 0,11.2 c 1.6,-3.6 3.9,-6.5 6.8,-8.6 3.3,-2.5 7.5,-3.7 12.4,-3.7 1.8,0 3.2,0.2 4.3,0.6 l 0.2,0.1 -0.4,3.2 -4.2,-0.4 c -5,0 -9.2,1.6 -12.5,4.9 -3.4,3.2 -5.6,7.8 -6.7,13.7 l 0.1,39.5 z m -3,-0.6 2.4,0 0,-38.9 c 1.1,-6 3.4,-10.7 6.8,-14.1 3.5,-3.3 7.8,-5 13,-5 l 3.6,0.3 0.3,-2.2 c -1,-0.3 -2.3,-0.5 -3.9,-0.5 -4.8,0 -8.9,1.2 -12.1,3.6 -3.2,2.4 -5.6,5.7 -7.2,9.8 l -0.6,1.5 0,-13.8 -2.4,0 0,59.3 z"
       id="path19"
       inkscape:connector-curvature="0"
       style="fill:#ffffff" /></g><g
     id="g21"
     transform="matrix(0.89011729,0,0,0.89011729,-117.03893,11.832231)"><path
       class="st0"
       d="m 610.7,20.4 c 0,-0.8 -0.3,-1.6 -0.9,-2.2 -0.6,-0.6 -1.3,-0.9 -2.2,-0.9 -0.9,0 -1.6,0.3 -2.2,0.9 -0.6,0.6 -0.9,1.3 -0.9,2.2 0,0.8 0.3,1.6 0.9,2.2 0.6,0.6 1.3,0.9 2.2,0.9 0.9,0 1.6,-0.3 2.2,-0.9 0.6,-0.7 0.9,-1.4 0.9,-2.2 z"
       id="path23"
       inkscape:connector-curvature="0"
       style="fill:#ffffff" /><path
       class="st0"
       d="m 607.6,23.7 c -0.9,0 -1.7,-0.3 -2.4,-1 -0.6,-0.6 -1,-1.4 -1,-2.4 0,-0.9 0.3,-1.7 1,-2.4 0.6,-0.7 1.4,-1 2.4,-1 0.9,0 1.7,0.3 2.4,1 0.7,0.7 1,1.5 1,2.4 0,0.9 -0.3,1.7 -1,2.4 -0.7,0.7 -1.5,1 -2.4,1 z m 0,-6.1 c -0.8,0 -1.4,0.3 -1.9,0.8 -0.5,0.6 -0.8,1.2 -0.8,2 0,0.8 0.3,1.4 0.8,1.9 0.5,0.5 1.2,0.8 1.9,0.8 0.8,0 1.4,-0.3 2,-0.8 0.6,-0.5 0.8,-1.2 0.8,-1.9 0,-0.8 -0.3,-1.4 -0.8,-2 -0.6,-0.5 -1.2,-0.8 -2,-0.8 z"
       id="path25"
       inkscape:connector-curvature="0"
       style="fill:#ffffff" /></g><g
     id="g27"
     transform="matrix(0.89011729,0,0,0.89011729,-117.03893,11.832231)"><rect
       x="606.09998"
       y="39.099998"
       class="st0"
       width="3"
       height="59.900002"
       id="rect29"
       style="fill:#ffffff" /><path
       class="st0"
       d="m 609.4,99.3 -3.6,0 0,-60.5 3.6,0 0,60.5 z m -3,-0.6 2.4,0 0,-59.3 -2.4,0 0,59.3 z"
       id="path31"
       inkscape:connector-curvature="0"
       style="fill:#ffffff" /></g><g
     id="g33"
     transform="matrix(0.89011729,0,0,0.89011729,-117.03893,11.832231)"><path
       class="st0"
       d="m 657.1,71.1 c -2.9,-1.5 -6.8,-2.9 -11.7,-4 -4.9,-1.1 -8.7,-2.3 -11.3,-3.6 -2.6,-1.2 -4.4,-2.6 -5.6,-4.2 -1.1,-1.5 -1.7,-3.6 -1.7,-6.3 0,-3.4 1.5,-6.3 4.6,-8.6 3.1,-2.3 7.2,-3.4 12.5,-3.4 5.5,0 9.9,1.3 13.3,4 3.4,2.7 5.1,6.1 5.1,10.1 l 3,0 c 0,-5.2 -2,-9.4 -5.9,-12.5 -3.9,-3.1 -9.1,-4.6 -15.6,-4.6 -5.9,0 -10.8,1.4 -14.5,4.3 -3.7,2.8 -5.6,6.5 -5.6,10.8 0,4.4 1.5,7.8 4.4,10.3 2.9,2.5 8.1,4.5 15.6,6.1 12.4,2.6 18.6,7.6 18.6,14.8 0,3.5 -1.7,6.6 -5,9.1 -3.3,2.5 -7.7,3.7 -13,3.7 -5.8,0 -10.5,-1.2 -13.9,-3.5 -3.4,-2.3 -5.3,-5.6 -5.6,-9.8 l -3,0 c 0,4.8 2.1,8.7 6.2,11.8 4.1,3 9.5,4.6 16.2,4.6 6.3,0 11.3,-1.4 15.2,-4.3 3.9,-2.9 5.8,-6.7 5.8,-11.4 0,-3.1 -0.6,-5.7 -1.9,-7.8 -1.3,-2.2 -3.3,-4.1 -6.2,-5.6 z"
       id="path35"
       inkscape:connector-curvature="0"
       style="fill:#ffffff" /><path
       class="st0"
       d="m 644.2,100.4 c -6.8,0 -12.3,-1.6 -16.4,-4.6 -4.2,-3.1 -6.3,-7.1 -6.3,-12 l 0,-0.3 3.6,0 0,0.3 c 0.3,4.1 2.1,7.3 5.4,9.6 3.3,2.3 8,3.5 13.7,3.5 5.3,0 9.6,-1.2 12.9,-3.7 3.2,-2.4 4.9,-5.4 4.9,-8.8 0,-7.1 -6.2,-12 -18.4,-14.5 -7.5,-1.6 -12.8,-3.7 -15.7,-6.2 -3,-2.5 -4.5,-6.1 -4.5,-10.5 0,-4.5 1.9,-8.2 5.7,-11.1 3.7,-2.9 8.7,-4.3 14.7,-4.3 6.5,0 11.8,1.6 15.7,4.7 4,3.1 6,7.4 6,12.7 l 0,0.3 -3.7,0 0,-0.3 c 0,-3.9 -1.7,-7.2 -5,-9.8 -3.3,-2.6 -7.7,-4 -13.1,-4 -5.2,0 -9.3,1.1 -12.3,3.4 -3,2.2 -4.5,5 -4.5,8.3 0,2.6 0.6,4.7 1.7,6.2 1.1,1.5 3,2.9 5.5,4.1 2.6,1.2 6.3,2.4 11.2,3.5 4.9,1.1 8.9,2.5 11.8,4.1 2.9,1.6 5.1,3.5 6.4,5.6 1.3,2.2 2,4.8 2,7.9 0,4.8 -2,8.7 -5.9,11.6 -3.9,2.8 -9.1,4.3 -15.4,4.3 z M 622.1,84.1 c 0.1,4.5 2.1,8.3 6,11.2 4,3 9.4,4.5 16.1,4.5 6.2,0 11.2,-1.4 15,-4.3 3.8,-2.8 5.7,-6.6 5.7,-11.2 0,-3 -0.6,-5.6 -1.9,-7.6 -1.3,-2.1 -3.3,-3.9 -6.1,-5.4 -2.8,-1.5 -6.8,-2.9 -11.7,-4 -4.9,-1.1 -8.8,-2.3 -11.4,-3.6 -2.6,-1.3 -4.5,-2.7 -5.7,-4.2 -1.2,-1.6 -1.8,-3.8 -1.8,-6.5 0,-3.5 1.6,-6.5 4.7,-8.8 3.1,-2.3 7.4,-3.5 12.6,-3.5 5.5,0 10,1.4 13.5,4.1 3.4,2.7 5.1,6 5.2,10 l 2.4,0 c -0.1,-5 -2,-9 -5.7,-11.9 -3.8,-3 -9,-4.6 -15.4,-4.6 -5.8,0 -10.7,1.4 -14.3,4.2 -3.6,2.8 -5.4,6.3 -5.4,10.6 0,4.2 1.4,7.6 4.3,10 2.9,2.4 8,4.5 15.4,6.1 12.5,2.6 18.8,7.7 18.8,15.1 0,3.6 -1.7,6.8 -5.1,9.3 -3.4,2.5 -7.8,3.8 -13.2,3.8 -5.9,0 -10.6,-1.2 -14,-3.6 -3.4,-2.3 -5.3,-5.6 -5.7,-9.8 l -2.3,0 z"
       id="path37"
       inkscape:connector-curvature="0"
       style="fill:#ffffff" /></g><g
     id="g39"
     transform="matrix(0.89011729,0,0,0.89011729,-117.03893,11.832231)"><path
       class="st0"
       d="m 538.3,147.1 c -2,-1.1 -4.7,-2 -8.1,-2.8 -3.4,-0.8 -6,-1.6 -7.8,-2.5 -1.8,-0.8 -3.1,-1.8 -3.8,-2.9 -0.8,-1.1 -1.2,-2.5 -1.2,-4.4 0,-2.4 1.1,-4.3 3.2,-5.9 2.1,-1.6 5,-2.4 8.6,-2.4 3.8,0 6.8,0.9 9.1,2.8 2.3,1.9 3.5,4.2 3.5,6.9 l 2.1,0 c 0,-3.6 -1.3,-6.5 -4,-8.6 -2.7,-2.1 -6.2,-3.2 -10.7,-3.2 -4.1,0 -7.4,1 -9.9,2.9 -2.5,2 -3.8,4.4 -3.8,7.5 0,3 1,5.3 3,7.1 2,1.7 5.6,3.1 10.7,4.2 8.5,1.8 12.8,5.2 12.8,10.2 0,2.4 -1.2,4.5 -3.4,6.2 -2.3,1.7 -5.3,2.6 -9,2.6 -4,0 -7.2,-0.8 -9.5,-2.4 -2.3,-1.6 -3.6,-3.9 -3.8,-6.8 l -2.3,0 c 0,3.3 1.4,6 4.2,8.1 2.8,2.1 6.5,3.1 11.2,3.1 4.3,0 7.8,-1 10.5,-3 2.7,-2 4,-4.6 4,-7.8 0,-2.1 -0.4,-3.9 -1.3,-5.3 -0.9,-1.3 -2.4,-2.6 -4.3,-3.6 z"
       id="path41"
       inkscape:connector-curvature="0"
       style="fill:#ffffff" /><path
       class="st0"
       d="m 529.4,167.3 c -4.7,0 -8.5,-1.1 -11.3,-3.2 -2.9,-2.1 -4.4,-4.9 -4.4,-8.3 l 0,-0.3 2.6,0 0,0.3 c 0.2,2.8 1.4,5 3.7,6.5 2.3,1.6 5.4,2.4 9.4,2.4 3.6,0 6.5,-0.8 8.8,-2.5 2.2,-1.6 3.3,-3.7 3.3,-6 0,-4.8 -4.2,-8.1 -12.5,-9.9 -5.1,-1.1 -8.8,-2.5 -10.8,-4.3 -2.1,-1.8 -3.1,-4.2 -3.1,-7.3 0,-3.1 1.3,-5.7 3.9,-7.7 2.6,-2 6,-3 10.1,-3 4.5,0 8.1,1.1 10.9,3.2 2.8,2.2 4.1,5.1 4.1,8.8 l 0,0.3 -2.7,0 0,-0.3 c 0,-2.7 -1.1,-4.9 -3.4,-6.7 -2.3,-1.8 -5.3,-2.7 -8.9,-2.7 -3.5,0 -6.3,0.8 -8.4,2.3 -2,1.5 -3,3.4 -3,5.7 0,1.8 0.4,3.2 1.1,4.2 0.7,1 2,1.9 3.7,2.8 1.7,0.8 4.3,1.7 7.7,2.4 3.4,0.8 6.1,1.7 8.1,2.8 2,1.1 3.5,2.4 4.4,3.9 0.9,1.5 1.4,3.4 1.4,5.5 0,3.3 -1.4,6 -4.1,8.1 -2.6,2 -6.2,3 -10.6,3 z m -15.1,-11.2 c 0.1,3 1.5,5.6 4.1,7.5 2.8,2 6.5,3.1 11,3.1 4.2,0 7.7,-1 10.3,-2.9 2.6,-1.9 3.9,-4.5 3.9,-7.6 0,-2 -0.4,-3.8 -1.3,-5.2 -0.9,-1.4 -2.3,-2.6 -4.2,-3.7 l 0,0 c -1.9,-1 -4.6,-2 -8,-2.7 -3.4,-0.8 -6,-1.6 -7.8,-2.5 -1.8,-0.9 -3.1,-1.9 -4,-2.9 -0.8,-1.1 -1.2,-2.6 -1.2,-4.5 0,-2.5 1.1,-4.5 3.3,-6.1 2.1,-1.6 5.1,-2.4 8.7,-2.4 3.8,0 6.9,1 9.3,2.8 2.3,1.8 3.5,4.1 3.6,6.9 l 1.5,0 c -0.1,-3.3 -1.4,-6 -3.9,-8 -2.6,-2.1 -6.2,-3.1 -10.5,-3.1 -4,0 -7.3,1 -9.8,2.9 -2.5,1.9 -3.7,4.3 -3.7,7.2 0,2.9 1,5.2 2.9,6.8 2,1.7 5.5,3.1 10.6,4.1 8.6,1.8 13,5.4 13,10.5 0,2.5 -1.2,4.7 -3.6,6.5 -2.3,1.7 -5.4,2.6 -9.1,2.6 -4.1,0 -7.3,-0.8 -9.7,-2.5 -2.3,-1.6 -3.7,-3.9 -3.9,-6.7 l -1.5,0 z"
       id="path43"
       inkscape:connector-curvature="0"
       style="fill:#ffffff" /></g><g
     id="g45"
     transform="matrix(0.89011729,0,0,0.89011729,-117.03893,11.832231)"><path
       class="st0"
       d="m 556,131.4 c 2.6,-3.3 6.2,-5 10.8,-5 3.8,0 7,1.1 9.4,3.4 2.4,2.2 3.7,5.2 3.9,8.9 l 2.1,0 c -0.2,-4.3 -1.7,-7.8 -4.5,-10.4 -2.8,-2.6 -6.4,-3.9 -10.8,-3.9 -5.1,0 -9.2,1.9 -12.2,5.6 -3,3.7 -4.5,8.7 -4.5,14.9 l 0,1.4 c 0,6.4 1.5,11.4 4.5,15.2 3,3.7 7.1,5.6 12.3,5.6 4.2,0 7.8,-1.2 10.7,-3.6 2.9,-2.4 4.4,-5.6 4.6,-9.6 l -2.3,0 c -0.2,3.5 -1.6,6.2 -4,8.2 -2.4,2 -5.5,3 -9.2,3 -4.6,0 -8.2,-1.6 -10.8,-4.9 -2.6,-3.3 -3.9,-7.8 -3.9,-13.6 l 0,-1.3 c 0,-6 1.3,-10.6 3.9,-13.9 z"
       id="path47"
       inkscape:connector-curvature="0"
       style="fill:#ffffff" /><path
       class="st0"
       d="m 566.9,167.3 c -5.2,0 -9.4,-1.9 -12.5,-5.7 -3.1,-3.8 -4.6,-8.9 -4.6,-15.4 l 0,-1.4 c 0,-6.3 1.6,-11.4 4.6,-15.1 3.1,-3.8 7.3,-5.7 12.4,-5.7 4.4,0 8.1,1.3 11,4 2.9,2.7 4.4,6.2 4.6,10.6 l 0,0.3 -2.7,0 0,-0.3 c -0.2,-3.6 -1.5,-6.5 -3.8,-8.7 -2.4,-2.2 -5.4,-3.3 -9.2,-3.3 -4.5,0 -8,1.6 -10.5,4.8 l 0,0 c -2.5,3.2 -3.8,7.8 -3.8,13.6 l 0,1.3 c 0,5.7 1.3,10.2 3.9,13.4 2.6,3.2 6.1,4.8 10.6,4.8 3.6,0 6.7,-1 9,-2.9 2.3,-1.9 3.6,-4.6 3.9,-8 l 0,-0.3 2.7,0 0,0.3 c -0.2,4.1 -1.8,7.4 -4.7,9.8 -3,2.7 -6.7,3.9 -10.9,3.9 z m -0.1,-42.7 c -5,0 -9,1.8 -12,5.5 -3,3.7 -4.5,8.6 -4.5,14.8 l 0,1.4 c 0,6.3 1.5,11.3 4.5,15 3,3.6 7,5.5 12,5.5 4.1,0 7.7,-1.2 10.5,-3.6 2.7,-2.3 4.2,-5.3 4.5,-9.1 l -1.5,0 c -0.3,3.4 -1.7,6.2 -4.1,8.1 -2.5,2 -5.6,3 -9.4,3 -4.7,0 -8.4,-1.7 -11.1,-5 -2.7,-3.3 -4,-7.9 -4,-13.7 l 0,-1.3 c 0,-5.9 1.3,-10.6 4,-14 2.6,-3.4 6.4,-5.1 11,-5.1 3.9,0 7.1,1.2 9.6,3.4 2.4,2.2 3.7,5.2 4,8.8 l 1.4,0 c -0.2,-4.1 -1.7,-7.4 -4.4,-9.9 -2.7,-2.5 -6.3,-3.8 -10.5,-3.8 z"
       id="path49"
       inkscape:connector-curvature="0"
       style="fill:#ffffff" /></g><g
     id="g51"
     transform="matrix(0.89011729,0,0,0.89011729,-117.03893,11.832231)"><path
       class="st0"
       d="m 606.7,124.3 c -3.2,0 -6.1,0.9 -8.7,2.8 -2.6,1.9 -4.6,4.4 -5.9,7.6 l 0,-26.9 -2.1,0 0,58.4 2.1,0 0,-26.3 c 0.9,-4 2.7,-7.2 5.3,-9.7 2.6,-2.5 5.7,-3.8 9.2,-3.8 3.9,0 6.7,1.1 8.4,3.2 1.8,2.1 2.7,5.4 2.7,9.8 l 0,26.9 2.1,0 0,-26.9 c 0,-5 -1.1,-8.8 -3.3,-11.3 -2.1,-2.5 -5.4,-3.8 -9.8,-3.8 z"
       id="path53"
       inkscape:connector-curvature="0"
       style="fill:#ffffff" /><path
       class="st0"
       d="m 620.1,166.6 -2.7,0 0,-27.2 c 0,-4.3 -0.9,-7.5 -2.6,-9.6 -1.7,-2 -4.5,-3.1 -8.2,-3.1 -3.5,0 -6.5,1.2 -9,3.7 -2.5,2.5 -4.3,5.7 -5.2,9.6 l 0,26.6 -2.7,0 0,-59 2.7,0 0,25.8 c 1.3,-2.6 3.2,-4.8 5.5,-6.4 2.7,-1.9 5.6,-2.8 8.8,-2.8 4.5,0 7.9,1.3 10.1,3.9 2.2,2.5 3.3,6.4 3.3,11.5 l 0,27 z m -2,-0.7 1.4,0 0,-26.5 c 0,-4.9 -1.1,-8.7 -3.2,-11.1 -2.1,-2.4 -5.3,-3.6 -9.6,-3.6 -3.1,0 -5.9,0.9 -8.5,2.7 -2.6,1.8 -4.5,4.3 -5.8,7.4 l -0.6,1.4 0,-28.1 -1.4,0 0,57.8 1.4,0 0,-26 c 0.9,-4.1 2.7,-7.4 5.4,-10 2.6,-2.6 5.8,-3.9 9.4,-3.9 3.9,0 6.8,1.1 8.7,3.3 1.8,2.2 2.7,5.5 2.8,10 l 0,26.6 z"
       id="path55"
       inkscape:connector-curvature="0"
       style="fill:#ffffff" /></g><g
     id="g57"
     transform="matrix(0.89011729,0,0,0.89011729,-117.03893,11.832231)"><path
       class="st0"
       d="m 644.4,124.3 c -3.1,0 -6,0.9 -8.7,2.7 -2.7,1.8 -4.8,4.2 -6.3,7.4 -1.5,3.2 -2.3,6.7 -2.3,10.5 l 0,1.7 c 0,3.8 0.8,7.3 2.4,10.4 1.6,3.1 3.7,5.6 6.5,7.4 2.8,1.8 5.8,2.7 9.1,2.7 6,0 10.6,-2.2 13.7,-6.7 l -1.4,-1 c -1.5,1.9 -3.2,3.3 -5.2,4.3 -1.9,0.9 -4.3,1.4 -7.1,1.4 -2.9,0 -5.6,-0.8 -8,-2.4 -2.5,-1.6 -4.4,-3.9 -5.8,-6.7 -1.4,-2.8 -2.1,-5.9 -2.1,-9.3 l 0,-2.2 30.8,0 0,-2.2 c 0,-5.3 -1.5,-9.6 -4.4,-12.9 -2.9,-3.4 -6.6,-5.1 -11.2,-5.1 z m 13.6,17.5 0,0.5 -28.7,0 c 0.5,-4.6 2.1,-8.4 4.9,-11.4 2.8,-3 6.2,-4.5 10.2,-4.5 2.6,0 4.9,0.7 6.9,2 2.1,1.3 3.7,3.2 4.9,5.6 1.2,2.4 1.8,5 1.8,7.8 z"
       id="path59"
       inkscape:connector-curvature="0"
       style="fill:#ffffff" /><path
       class="st0"
       d="m 645.2,167.3 c -3.4,0 -6.5,-0.9 -9.3,-2.7 -2.8,-1.8 -5,-4.3 -6.6,-7.5 -1.6,-3.1 -2.4,-6.7 -2.4,-10.5 l 0,-1.7 c 0,-3.8 0.8,-7.4 2.3,-10.6 1.5,-3.2 3.7,-5.7 6.4,-7.5 2.7,-1.8 5.7,-2.7 8.9,-2.7 4.7,0 8.5,1.7 11.5,5 3,3.3 4.5,7.7 4.5,13.1 l 0,2.5 -30.8,0 0,1.9 c 0,3.3 0.7,6.4 2.1,9.1 1.4,2.8 3.3,5 5.7,6.6 2.4,1.6 5.1,2.4 7.9,2.4 2.7,0 5,-0.5 6.9,-1.3 1.9,-0.9 3.6,-2.3 5,-4.2 l 0.2,-0.2 1.9,1.4 -0.2,0.2 c -3.2,4.4 -7.9,6.7 -14,6.7 z m -0.8,-42.7 c -3.1,0 -5.9,0.9 -8.5,2.6 -2.6,1.7 -4.7,4.2 -6.2,7.3 -1.5,3.1 -2.3,6.6 -2.3,10.3 l 0,1.7 c 0,3.7 0.8,7.2 2.3,10.2 1.5,3.1 3.7,5.5 6.4,7.2 2.7,1.7 5.7,2.6 9,2.6 5.8,0 10.2,-2.1 13.2,-6.3 l -1,-0.7 c -1.5,1.8 -3.2,3.2 -5.1,4.1 -2,0.9 -4.4,1.4 -7.2,1.4 -2.9,0 -5.7,-0.8 -8.2,-2.5 -2.5,-1.6 -4.5,-3.9 -5.9,-6.8 -1.4,-2.9 -2.1,-6 -2.1,-9.4 l 0,-2.3 30.8,0 0,-1.9 c 0,-5.2 -1.4,-9.5 -4.3,-12.7 -2.7,-3.1 -6.4,-4.8 -10.9,-4.8 z m 13.9,18 -29.3,0 0,-0.3 c 0.5,-4.7 2.2,-8.6 5,-11.6 2.8,-3 6.3,-4.6 10.4,-4.6 2.6,0 5,0.7 7.1,2 2.1,1.4 3.8,3.3 5,5.7 1.2,2.4 1.8,5.1 1.8,7.9 l 0,0.9 z m -28.7,-0.7 28,0 0,-0.2 c 0,-2.7 -0.6,-5.3 -1.7,-7.6 -1.2,-2.3 -2.8,-4.2 -4.8,-5.5 -2,-1.3 -4.3,-1.9 -6.8,-1.9 -3.9,0 -7.3,1.5 -10,4.4 -2.5,2.8 -4.1,6.5 -4.7,10.8 z"
       id="path61"
       inkscape:connector-curvature="0"
       style="fill:#ffffff" /></g><g
     id="g63"
     transform="matrix(0.89011729,0,0,0.89011729,-117.03893,11.832231)"><path
       class="st0"
       d="m 694.9,132.7 c -1.5,-2.8 -3.4,-4.8 -5.8,-6.2 -2.4,-1.4 -5.1,-2.1 -8.2,-2.1 -4.8,0 -8.6,1.8 -11.4,5.5 -2.8,3.7 -4.1,8.8 -4.1,15.4 l 0,0.5 c 0,6.6 1.4,11.8 4.1,15.6 2.8,3.8 6.5,5.7 11.3,5.7 3.1,0 5.9,-0.6 8.3,-1.9 2.4,-1.3 4.3,-3.1 5.7,-5.4 l 0,6.6 2.1,0 0,-58.4 -2.1,0 0,24.7 z m 0,23.4 c -1.2,2.9 -3,5.1 -5.4,6.6 -2.4,1.5 -5.3,2.3 -8.7,2.3 -4.2,0 -7.5,-1.7 -9.8,-5.1 -2.3,-3.4 -3.5,-8 -3.5,-13.8 0,-6.5 1.2,-11.4 3.5,-14.7 2.3,-3.3 5.6,-5 9.8,-5 7,0 11.6,3.5 14,10.4 l 0,19.3 z"
       id="path65"
       inkscape:connector-curvature="0"
       style="fill:#ffffff" /><path
       class="st0"
       d="m 680.8,167.3 c -4.8,0 -8.7,-1.9 -11.5,-5.8 -2.8,-3.8 -4.2,-9.1 -4.2,-15.7 l 0,-0.5 c 0,-6.6 1.4,-11.8 4.2,-15.6 2.8,-3.8 6.7,-5.7 11.6,-5.7 3.1,0 5.9,0.7 8.3,2.1 2.1,1.2 3.9,3 5.3,5.4 l 0,-24 2.7,0 0,59 -2.7,0 0,-5.9 c -1.4,2 -3.1,3.5 -5.3,4.7 -2.4,1.4 -5.3,2 -8.4,2 z m 0.1,-42.7 c -4.7,0 -8.4,1.8 -11.1,5.4 -2.7,3.6 -4.1,8.7 -4.1,15.2 l 0,0.5 c 0,6.5 1.4,11.7 4.1,15.4 2.7,3.7 6.4,5.5 11.1,5.5 3,0 5.8,-0.6 8.2,-1.9 2.4,-1.2 4.3,-3 5.6,-5.3 l 0.6,-0.9 0,7.4 1.4,0 0,-57.8 -1.4,0 0,25.8 -0.6,-1.1 c -1.4,-2.7 -3.3,-4.8 -5.6,-6.1 -2.5,-1.4 -5.2,-2.1 -8.2,-2.1 z m -0.1,40.7 c -4.3,0 -7.7,-1.8 -10.1,-5.2 -2.3,-3.4 -3.5,-8.1 -3.5,-14 0,-6.5 1.2,-11.5 3.6,-14.9 2.4,-3.4 5.8,-5.1 10.1,-5.1 7.1,0 11.9,3.6 14.3,10.6 l 0,0.1 0,19.4 c -1.2,3 -3,5.2 -5.5,6.8 -2.5,1.5 -5.5,2.3 -8.9,2.3 z m 0.1,-38.6 c -4.1,0 -7.3,1.6 -9.6,4.9 -2.3,3.3 -3.5,8.1 -3.5,14.5 0,5.7 1.1,10.3 3.4,13.7 2.2,3.3 5.5,4.9 9.6,4.9 3.3,0 6.2,-0.7 8.5,-2.2 2.3,-1.5 4.1,-3.6 5.2,-6.4 l 0,-19.2 c -2.3,-6.8 -6.9,-10.2 -13.6,-10.2 z"
       id="path67"
       inkscape:connector-curvature="0"
       style="fill:#ffffff" /></g><g
     id="g69"
     transform="matrix(0.89011729,0,0,0.89011729,-117.03893,11.832231)"><path
       class="st0"
       d="m 735.2,154 c -0.7,3.6 -2.2,6.3 -4.7,8.1 -2.5,1.8 -5.7,2.8 -9.6,2.8 -3.7,0 -6.5,-1.1 -8.4,-3.4 -1.9,-2.2 -2.9,-5.5 -3,-9.9 l 0,-26.6 -2.1,0 0,26.5 c 0,5 1.2,8.8 3.4,11.5 2.2,2.6 5.6,3.9 10.1,3.9 3.6,0 6.5,-0.7 8.9,-2 2.3,-1.3 4.1,-3.1 5.3,-5.4 l 0,6.7 2.1,0 0,-41.2 -2.1,0 0,29 z"
       id="path71"
       inkscape:connector-curvature="0"
       style="fill:#ffffff" /><path
       class="st0"
       d="m 721,167.3 c -4.6,0 -8,-1.4 -10.3,-4 -2.3,-2.7 -3.5,-6.6 -3.5,-11.7 l 0,-26.8 2.7,0 0,26.9 c 0.1,4.3 1,7.5 2.9,9.7 1.9,2.2 4.6,3.3 8.2,3.3 3.8,0 7,-0.9 9.4,-2.7 2.4,-1.8 3.9,-4.5 4.6,-7.9 l 0,-29.2 2.7,0 0,41.8 -2.7,0 0,-5.8 c -1.2,1.9 -2.8,3.4 -4.9,4.6 -2.5,1.1 -5.5,1.8 -9.1,1.8 z m -13.3,-41.9 0,26.2 c 0,4.9 1.2,8.7 3.4,11.3 2.2,2.5 5.5,3.8 9.9,3.8 3.5,0 6.4,-0.7 8.7,-2 2.3,-1.3 4,-3.1 5.2,-5.3 l 0.6,-1.1 0,7.6 1.5,0 0,-40.5 -1.5,0 0,28.7 c -0.7,3.6 -2.3,6.4 -4.8,8.3 -2.5,1.9 -5.8,2.8 -9.8,2.8 -3.8,0 -6.7,-1.2 -8.7,-3.5 -2,-2.3 -3,-5.7 -3,-10.1 l 0,-26.3 -1.5,0 z"
       id="path73"
       inkscape:connector-curvature="0"
       style="fill:#ffffff" /></g><g
     id="g75"
     transform="matrix(0.89011729,0,0,0.89011729,-117.03893,11.832231)"><rect
       x="748.40002"
       y="107.8"
       class="st0"
       width="2.0999999"
       height="58.400002"
       id="rect77"
       style="fill:#ffffff" /><path
       class="st0"
       d="m 750.7,166.6 -2.7,0 0,-59 2.7,0 0,59 z m -2,-0.7 1.4,0 0,-57.8 -1.4,0 0,57.8 z"
       id="path79"
       inkscape:connector-curvature="0"
       style="fill:#ffffff" /></g><g
     id="g81"
     transform="matrix(0.89011729,0,0,0.89011729,-117.03893,11.832231)"><path
       class="st0"
       d="m 763.1,110.1 c -0.6,0 -1.1,0.2 -1.5,0.6 -0.4,0.4 -0.6,0.9 -0.6,1.5 0,0.6 0.2,1.1 0.6,1.5 0.4,0.4 0.9,0.6 1.5,0.6 0.6,0 1.1,-0.2 1.5,-0.6 0.4,-0.4 0.6,-0.9 0.6,-1.5 0,-0.6 -0.2,-1.1 -0.6,-1.5 -0.4,-0.4 -0.9,-0.6 -1.5,-0.6 z"
       id="path83"
       inkscape:connector-curvature="0"
       style="fill:#ffffff" /><path
       class="st0"
       d="m 763.1,114.6 c -0.7,0 -1.2,-0.2 -1.7,-0.7 -0.5,-0.5 -0.7,-1 -0.7,-1.7 0,-0.7 0.2,-1.2 0.7,-1.7 0.5,-0.5 1,-0.7 1.7,-0.7 0.7,0 1.2,0.2 1.7,0.7 0.5,0.5 0.7,1.1 0.7,1.7 0,0.7 -0.2,1.2 -0.7,1.7 -0.5,0.5 -1,0.7 -1.7,0.7 z m 0,-4.2 c -0.5,0 -0.9,0.2 -1.3,0.5 -0.4,0.4 -0.5,0.8 -0.5,1.3 0,0.5 0.2,0.9 0.5,1.3 0.3,0.4 0.8,0.5 1.3,0.5 0.5,0 0.9,-0.2 1.3,-0.5 0.4,-0.4 0.5,-0.8 0.5,-1.3 0,-0.5 -0.2,-0.9 -0.5,-1.3 -0.4,-0.3 -0.8,-0.5 -1.3,-0.5 z"
       id="path85"
       inkscape:connector-curvature="0"
       style="fill:#ffffff" /></g><g
     id="g87"
     transform="matrix(0.89011729,0,0,0.89011729,-117.03893,11.832231)"><rect
       x="762.09998"
       y="125.1"
       class="st0"
       width="2.0999999"
       height="41.200001"
       id="rect89"
       style="fill:#ffffff" /><path
       class="st0"
       d="m 764.4,166.6 -2.7,0 0,-41.8 2.7,0 0,41.8 z m -2,-0.7 1.4,0 0,-40.5 -1.4,0 0,40.5 z"
       id="path91"
       inkscape:connector-curvature="0"
       style="fill:#ffffff" /></g><g
     id="g93"
     transform="matrix(0.89011729,0,0,0.89011729,-117.03893,11.832231)"><path
       class="st0"
       d="m 792,124.3 c -3.2,0 -6.1,0.9 -8.7,2.8 -2.6,1.9 -4.6,4.4 -5.9,7.6 l 0,-9.6 -2.1,0 0,41.2 2.1,0 0,-26.3 c 0.9,-4 2.7,-7.2 5.3,-9.7 2.6,-2.5 5.7,-3.8 9.2,-3.8 3.9,0 6.7,1.1 8.4,3.2 1.8,2.1 2.7,5.4 2.7,9.8 l 0,26.9 2.1,0 0,-26.9 c 0,-5 -1.1,-8.8 -3.3,-11.3 -2.2,-2.6 -5.4,-3.9 -9.8,-3.9 z"
       id="path95"
       inkscape:connector-curvature="0"
       style="fill:#ffffff" /><path
       class="st0"
       d="m 805.3,166.6 -2.7,0 0,-27.2 c 0,-4.3 -0.9,-7.5 -2.6,-9.6 -1.7,-2 -4.5,-3.1 -8.2,-3.1 -3.5,0 -6.5,1.2 -9,3.7 -2.5,2.5 -4.3,5.7 -5.2,9.6 l 0,26.6 -2.6,0 0,-41.8 2.7,0 0,8.5 c 1.3,-2.6 3.2,-4.8 5.5,-6.4 2.7,-1.9 5.6,-2.8 8.8,-2.8 4.5,0 7.9,1.3 10.1,3.9 2.2,2.5 3.3,6.4 3.3,11.5 l 0,27.1 z m -2,-0.7 1.4,0 0,-26.5 c 0,-4.9 -1.1,-8.7 -3.2,-11.1 -2.1,-2.4 -5.3,-3.6 -9.6,-3.6 -3.1,0 -5.9,0.9 -8.5,2.7 -2.6,1.8 -4.5,4.3 -5.8,7.4 l -0.6,1.4 0,-10.8 -1.4,0 0,40.5 1.4,0 0,-26 c 0.9,-4.1 2.7,-7.4 5.4,-10 2.6,-2.6 5.8,-3.9 9.4,-3.9 3.9,0 6.8,1.1 8.7,3.3 1.8,2.2 2.7,5.5 2.8,10 l 0,26.6 z"
       id="path97"
       inkscape:connector-curvature="0"
       style="fill:#ffffff" /></g><g
     id="g99"
     transform="matrix(0.89011729,0,0,0.89011729,-117.03893,11.832231)"><path
       class="st0"
       d="m 843.1,132.6 c -1.4,-2.7 -3.4,-4.8 -5.7,-6.2 -2.4,-1.4 -5.1,-2.1 -8.2,-2.1 -4.8,0 -8.6,1.8 -11.4,5.5 -2.8,3.7 -4.1,8.8 -4.1,15.4 l 0,0.5 c 0,6.6 1.4,11.8 4.1,15.6 2.8,3.8 6.5,5.7 11.3,5.7 3.1,0 5.8,-0.6 8.2,-1.9 2.4,-1.3 4.3,-3 5.8,-5.4 l 0,6.3 c -0.1,4.7 -1.3,8.3 -3.7,10.9 -2.4,2.6 -5.7,3.9 -9.9,3.9 -2.6,0 -4.8,-0.5 -6.7,-1.6 -1.9,-1.1 -3.7,-2.6 -5.2,-4.6 l -1.4,1.4 c 1.6,2.2 3.6,4 5.9,5.1 2.3,1.2 4.8,1.8 7.6,1.8 4.8,0 8.6,-1.5 11.4,-4.6 2.8,-3.1 4.2,-7.3 4.2,-12.7 l 0,-40.4 -2.1,0 0,7.4 z m 0,23.2 c -1,2.9 -2.7,5.2 -5.2,6.8 -2.4,1.6 -5.4,2.4 -8.9,2.4 -4.2,0 -7.5,-1.7 -9.8,-5 -2.3,-3.4 -3.5,-8 -3.5,-13.9 0,-6.5 1.2,-11.4 3.5,-14.7 2.3,-3.3 5.6,-5 9.9,-5 7.1,0 11.7,3.6 14,10.7 l 0,18.7 z"
       id="path101"
       inkscape:connector-curvature="0"
       style="fill:#ffffff" /><path
       class="st0"
       d="m 829.6,183.1 c -2.8,0 -5.4,-0.6 -7.7,-1.8 -2.3,-1.2 -4.3,-3 -6,-5.2 l -0.2,-0.2 1.9,-1.8 0.2,0.3 c 1.6,2 3.3,3.5 5.2,4.6 1.9,1 4.1,1.6 6.5,1.6 4.1,0 7.4,-1.3 9.7,-3.8 2.3,-2.5 3.5,-6.1 3.6,-10.7 l 0,-5.3 c -1.4,2 -3.2,3.5 -5.3,4.6 -2.5,1.3 -5.3,1.9 -8.4,1.9 -4.8,0 -8.7,-1.9 -11.5,-5.8 -2.8,-3.8 -4.2,-9.1 -4.2,-15.7 l 0,-0.5 c 0,-6.6 1.4,-11.8 4.2,-15.6 2.8,-3.8 6.7,-5.7 11.6,-5.7 3.1,0 5.9,0.7 8.3,2.2 2.1,1.2 3.9,3 5.3,5.3 l 0,-6.7 2.7,0 0,40.7 c 0,5.5 -1.4,9.8 -4.3,12.9 -2.8,3.2 -6.7,4.7 -11.6,4.7 z m -13,-7.2 c 1.6,2.1 3.4,3.7 5.6,4.8 2.2,1.2 4.7,1.8 7.4,1.8 4.7,0 8.4,-1.5 11.1,-4.5 2.7,-3 4.1,-7.2 4.1,-12.5 l 0,-40.1 -1.5,0 0,8.4 -0.6,-1.1 c -1.4,-2.7 -3.3,-4.7 -5.6,-6.1 -2.3,-1.4 -5,-2.1 -8,-2.1 -4.7,0 -8.4,1.8 -11.1,5.4 -2.7,3.6 -4.1,8.7 -4.1,15.2 l 0,0.5 c 0,6.5 1.4,11.7 4.1,15.4 2.7,3.7 6.4,5.5 11.1,5.5 3,0 5.7,-0.6 8.1,-1.8 2.4,-1.2 4.3,-3 5.6,-5.3 l 0.6,-0.9 0,7.4 c -0.1,4.7 -1.3,8.5 -3.7,11.1 -2.4,2.6 -5.8,4 -10.1,4 -2.6,0 -4.9,-0.6 -6.8,-1.7 -1.8,-1 -3.6,-2.5 -5.1,-4.5 l -1.1,1.1 z m 12.5,-10.6 c -4.3,0 -7.7,-1.7 -10.1,-5.2 -2.4,-3.4 -3.6,-8.1 -3.6,-14 0,-6.5 1.2,-11.5 3.6,-14.9 2.4,-3.4 5.8,-5.1 10.1,-5.1 7.2,0 12,3.7 14.3,10.9 l 0,0.1 0,18.8 c -1,3 -2.8,5.3 -5.3,6.9 -2.5,1.6 -5.5,2.5 -9,2.5 z m 0,-38.6 c -4.1,0 -7.3,1.6 -9.6,4.9 -2.3,3.3 -3.5,8.1 -3.5,14.5 0,5.8 1.2,10.4 3.4,13.7 2.3,3.3 5.5,4.9 9.6,4.9 3.4,0 6.3,-0.8 8.7,-2.4 2.3,-1.6 4,-3.8 5,-6.6 l 0,-18.6 c -2.1,-7 -6.6,-10.4 -13.6,-10.4 z"
       id="path103"
       inkscape:connector-curvature="0"
       style="fill:#ffffff" /></g><g
     id="g105"
     transform="matrix(0.89011729,0,0,0.89011729,-117.03893,11.832231)"><linearGradient
       id="SVGID_1_"
       gradientUnits="userSpaceOnUse"
       x1="362.66641"
       y1="89.014297"
       x2="390.39929"
       y2="157.65559"><stop
         offset="7.000000e-02"
         style="stop-color:#FFFFFF;stop-opacity:0"
         id="stop108" /><stop
         offset="1"
         style="stop-color:#FFFFFF"
         id="stop110" /></linearGradient><path
       class="st1"
       d="m 308.4,129.7 26.2,26.2 c 14.5,14.5 37.9,14.5 52.3,0 l 52.3,-52.3 c -14.5,14.5 -37.9,14.5 -52.3,0 -14.4,-14.5 -37.9,-14.5 -52.3,0 l -26.2,26.1 z"
       id="path112"
       style="fill:url(#SVGID_1_)"
       inkscape:connector-curvature="0" /><linearGradient
       id="SVGID_2_"
       gradientUnits="userSpaceOnUse"
       x1="396.95731"
       y1="111.3797"
       x2="416.11649"
       y2="39.876801"><stop
         offset="5.000000e-02"
         style="stop-color:#FFFFFF;stop-opacity:0"
         id="stop115" /><stop
         offset="0.1351"
         style="stop-color:#FFFFFF;stop-opacity:8.962709e-02"
         id="stop117" /><stop
         offset="1"
         style="stop-color:#FFFFFF"
         id="stop119" /></linearGradient><path
       class="st2"
       d="m 386.9,103.5 c 14.5,14.5 37.9,14.5 52.3,0 14.4,-14.5 14.5,-37.9 0,-52.3 -14.5,-14.4 -37.9,-14.5 -52.3,0 l -26.2,26.2 26.2,26.1 z"
       id="path121"
       style="fill:url(#SVGID_2_)"
       inkscape:connector-curvature="0" /><linearGradient
       id="SVGID_3_"
       gradientUnits="userSpaceOnUse"
       x1="7553.082"
       y1="103.5479"
       x2="7605.4175"
       y2="51.212799"
       gradientTransform="matrix(-1,0,0,1,7782.9854,0)"><stop
         offset="0"
         style="stop-color:#FFFFFF;stop-opacity:0"
         id="stop124" /><stop
         offset="1"
         style="stop-color:#FFFFFF"
         id="stop126" /></linearGradient><path
       class="st3"
       d="m 229.9,103.5 c -14.5,14.5 -37.9,14.5 -52.3,0 -14.5,-14.5 -14.5,-37.9 0,-52.3 14.5,-14.5 37.9,-14.5 52.3,0 l 26.2,26.2 -26.2,26.1 z"
       id="path128"
       style="fill:url(#SVGID_3_)"
       inkscape:connector-curvature="0" /><path
       class="st0"
       d="m 177.6,103.5 c 14.5,14.5 37.9,14.5 52.3,0 l 52.3,-52.3 c 14.5,-14.5 37.9,-14.5 52.3,0 l 52.3,52.3 C 372.3,89 348.9,89 334.5,103.5 l -52.3,52.3 c -14.5,14.5 -37.9,14.5 -52.3,0 l -52.3,-52.3 z"
       id="path130"
       inkscape:connector-curvature="0"
       style="fill:#ffffff" /></g></svg>